<?xml version="1.0" encoding="UTF-8"?>
<svg width="1546px" height="184px" viewBox="0 0 1546 184" version="1.1" xmlns="http://www.w3.org/2000/svg" xmlns:xlink="http://www.w3.org/1999/xlink">
    <!-- Generator: Sketch 48.2 (47327) - http://www.bohemiancoding.com/sketch -->
    <title>Page 1</title>
    <desc>Created with Sketch.</desc>
    <defs>
        <polygon id="path-1" points="0.821 0.648 192.15 0.648 192.15 184 0.821 184"></polygon>
    </defs>
    <g id="Page-1" stroke="none" stroke-width="1" fill="none" fill-rule="evenodd">
        <g transform="translate(0.000000, -1.000000)">
            <polygon id="Fill-1" fill="#FF3C3C" points="1.2294 4.2197 1.2294 49.0167 91.3384 49.0167 0.0004 140.3537 0.0004 181.1937 176.9744 181.1937 176.9744 136.3597 81.7024 136.3597 173.2864 44.7757 173.2864 4.2197"></polygon>
            <polygon id="Fill-2" fill="#FF3C3C" points="195.5317 181.1939 361.3217 181.1939 361.3217 137.6379 254.6947 137.6379 254.6947 114.6199 355.1767 114.6199 355.1767 69.0729 254.6457 69.0729 254.6457 47.7869 361.3217 47.7869 361.3217 4.2189 195.5317 4.2189"></polygon>
            <polygon id="Fill-3" fill="#FF3C3C" points="504.9287 94.5621 430.9197 4.2191 382.4107 4.2191 382.4107 181.1941 436.8557 181.1941 436.8557 91.3421 510.3727 181.1941 559.3857 181.1941 559.3857 4.2191 504.9287 4.2191"></polygon>
            <g id="Group-15" transform="translate(581.000000, 0.352000)">
                <path d="M94.2173,79.3639 L60.3093,79.3639 L60.3093,46.4399 L92.7303,46.4399 C108.0683,46.4399 116.2403,50.3969 116.2403,62.0349 C116.2403,73.9199 108.5713,79.3639 94.2173,79.3639 M175.6503,58.0779 C175.6503,27.1319 155.3463,3.8669 112.7753,3.8669 L0.6543,3.8669 L0.6543,180.8419 L60.3093,180.8419 L60.3093,120.4489 L82.8373,120.4489 L119.7063,180.8419 L183.2813,180.8419 L141.4963,112.5219 C158.8493,104.6449 175.6503,89.0239 175.6503,58.0779" id="Fill-4" fill="#FF3C3C"></path>
                <polygon id="Fill-6" fill="#FF3C3C" points="195.7187 180.8419 361.5217 180.8419 361.5217 137.2859 254.8457 137.2859 254.8457 114.2679 355.3517 114.2679 355.3517 68.7209 254.8577 68.7209 254.8577 47.4349 361.5337 47.4349 361.5337 3.8669 195.7187 3.8669"></polygon>
                <path d="M463.0107,102.6163 L481.8267,53.3583 L500.6427,102.6163 L463.0107,102.6163 Z M446.4317,3.8673 L372.6937,180.8423 L433.0607,180.8423 L446.4317,146.1833 L517.2217,146.1833 L530.5687,180.8423 L591.9557,180.8423 L518.2167,3.8673 L446.4317,3.8673 Z" id="Fill-8" fill="#FF3C3C"></path>
                <g id="Group-12" transform="translate(580.000000, 0.000000)">
                    <mask id="mask-2" fill="white">
                        <use xlink:href="#path-1"></use>
                    </mask>
                    <g id="Clip-11"></g>
                    <path d="M98.833,46.4395 C115.167,46.4395 128.28,56.5905 131.008,74.1655 L192.15,74.1655 C185.71,27.3775 151.065,0.6475 98.588,0.6475 C38.92,0.6475 0.821,35.7965 0.821,92.2315 C0.821,148.6665 38.945,184.0615 98.551,184.0005 C151.028,184.0005 185.674,157.2695 192.113,110.9855 L130.787,110.9855 C128.046,128.1185 115.167,138.0235 98.833,138.0235 C76.81,138.0235 61.706,120.4985 61.706,92.2315 C61.706,64.5055 76.81,46.4395 98.833,46.4395" id="Fill-10" fill="#FF3C3C" mask="url(#mask-2)"></path>
                </g>
                <polygon id="Fill-13" fill="#FF3C3C" points="905.0654 3.8673 905.0654 65.2553 847.6464 65.2553 847.6464 3.8673 787.7464 3.8673 787.7464 180.8423 847.6464 180.8423 847.6464 116.9333 905.0654 116.9333 905.0654 180.8423 964.7194 180.8423 964.7194 3.8673"></polygon>
            </g>
        </g>
    </g>
</svg>