<?xml version="1.0" encoding="UTF-8"?>
<svg width="472px" height="78px" viewBox="0 0 472 78" version="1.1" xmlns="http://www.w3.org/2000/svg" xmlns:xlink="http://www.w3.org/1999/xlink">
    <!-- Generator: Sketch 63.1 (92452) - https://sketch.com -->
    <title>bonfire-logo</title>
    <desc>Created with Sketch.</desc>
    <g id="Page-1" stroke="none" stroke-width="1" fill="none" fill-rule="evenodd">
        <g id="bonfire-logo" fill-rule="nonzero">
            <g id="Group">
                <path d="M27.49,77.2 C45.32,77.2 54.37,64.59 54.37,49.75 C54.37,34.91 36.68,13.53 36.68,13.53 C36.68,13.53 28.9,5.13 27.48,0.58 L27.2,0.58 C25.76,5.13 18,13.53 18,13.53 C18,13.53 0.33,34.91 0.33,49.75 C0.33,64.58 9.39,77.2 27.21,77.2 L27.49,77.2 Z" id="Path" fill="#5FACCE"></path>
                <path d="M27.43,65.24 C35.34,65.24 39.36,59.83 39.36,53.46 C39.36,47.09 31.51,37.92 31.51,37.92 C31.51,37.92 27.99,34.08 27.43,31.93 L27.3,31.93 C26.74,34.09 23.22,37.92 23.22,37.92 C23.22,37.92 15.37,47.1 15.37,53.46 C15.37,59.83 19.39,65.24 27.3,65.24 L27.43,65.24 L27.43,65.24 Z" id="Path" fill="#FFFFFF"></path>
                <path d="M108.41,76.81 C126.24,76.81 135.29,64.2 135.29,49.36 C135.29,34.52 117.6,13.14 117.6,13.14 C117.6,13.14 109.82,4.74 108.4,0.19 L108.12,0.19 C106.69,4.73 98.92,13.14 98.92,13.14 C98.92,13.14 81.24,34.52 81.24,49.36 C81.24,64.2 90.3,76.81 108.12,76.81 L108.41,76.81 Z" id="Path" fill="#F2DB13"></path>
                <path d="M108.35,64.85 C116.26,64.85 120.28,59.44 120.28,53.07 C120.28,46.7 112.43,37.52 112.43,37.52 C112.43,37.52 108.91,33.68 108.35,31.53 L108.22,31.53 C107.66,33.68 104.14,37.52 104.14,37.52 C104.14,37.52 96.29,46.7 96.29,53.07 C96.29,59.44 100.31,64.85 108.22,64.85 L108.35,64.85 Z" id="Path" fill="#FFFFFF"></path>
                <path d="M67.73,77.2 C85.56,77.2 94.61,64.59 94.61,49.75 C94.61,34.91 76.92,13.53 76.92,13.53 C76.92,13.53 69.14,5.13 67.72,0.58 L67.44,0.58 C66,5.13 58.24,13.53 58.24,13.53 C58.24,13.53 40.56,34.91 40.56,49.75 C40.56,64.58 49.62,77.2 67.44,77.2 L67.73,77.2 Z" id="Path" fill="#F29624"></path>
                <path d="M67.67,65.24 C75.58,65.24 79.6,59.83 79.6,53.46 C79.6,47.09 71.75,37.92 71.75,37.92 C71.75,37.92 68.23,34.08 67.67,31.93 L67.54,31.93 C66.98,34.09 63.46,37.92 63.46,37.92 C63.46,37.92 55.61,47.1 55.61,53.46 C55.61,59.83 59.63,65.24 67.54,65.24 L67.67,65.24 L67.67,65.24 Z" id="Path" fill="#FFFFFF"></path>
            </g>
            <path d="M155.77,9.49 L178.29,9.49 C187.06,9.49 193.58,10.79 197.83,13.4 C202.08,16.01 204.21,20.06 204.21,25.57 C204.21,29.19 203.28,32.28 201.43,34.84 C199.58,37.4 197.13,39.05 194.1,39.78 L194.1,40.22 C198.11,41.28 201,43.05 202.8,45.52 C204.59,47.99 205.49,51.2 205.49,55.15 C205.49,61 203.29,65.62 198.89,68.99 C194.49,72.37 188.49,74.05 180.9,74.05 L155.77,74.05 L155.77,9.49 L155.77,9.49 Z M173.21,34.26 L178.46,34.26 C180.96,34.26 182.9,33.74 184.27,32.72 C185.64,31.69 186.32,30.16 186.32,28.13 C186.32,24.51 183.58,22.7 178.1,22.7 L173.2,22.7 L173.2,34.26 L173.21,34.26 Z M173.21,47.03 L173.21,60.59 L179.35,60.59 C184.8,60.59 187.52,58.3 187.52,53.7 C187.52,51.55 186.79,49.9 185.33,48.75 C183.87,47.6 181.76,47.03 178.99,47.03 L173.21,47.03 Z" id="Shape" fill="#3E3E3E"></path>
            <path d="M259.85,48.92 C259.85,57.11 257.65,63.49 253.25,68.06 C248.85,72.64 242.69,74.93 234.77,74.93 C227.18,74.93 221.13,72.59 216.65,67.91 C212.16,63.23 209.92,56.9 209.92,48.92 C209.92,40.77 212.12,34.43 216.52,29.91 C220.92,25.39 227.09,23.13 235.04,23.13 C239.96,23.13 244.3,24.18 248.07,26.26 C251.84,28.35 254.75,31.35 256.79,35.25 C258.83,39.16 259.85,43.72 259.85,48.92 M227.44,48.92 C227.44,53.22 228.01,56.49 229.16,58.75 C230.31,61 232.24,62.13 234.94,62.13 C237.62,62.13 239.51,61 240.62,58.75 C241.72,56.5 242.28,53.22 242.28,48.92 C242.28,44.65 241.72,41.43 240.6,39.25 C239.48,37.07 237.57,35.98 234.86,35.98 C232.21,35.98 230.31,37.06 229.16,39.22 C228.01,41.39 227.44,44.63 227.44,48.92" id="Shape" fill="#3E3E3E"></path>
            <path d="M297.66,74.05 L297.66,46.76 C297.66,43.43 297.18,40.92 296.22,39.23 C295.26,37.54 293.73,36.69 291.61,36.69 C288.7,36.69 286.59,37.85 285.3,40.18 C284,42.51 283.36,46.5 283.36,52.15 L283.36,74.05 L266.09,74.05 L266.09,24.02 L279.12,24.02 L281.29,30.2 L282.3,30.2 C283.77,27.84 285.81,26.08 288.42,24.9 C291.02,23.72 294.02,23.13 297.41,23.13 C302.94,23.13 307.25,24.73 310.33,27.94 C313.41,31.15 314.95,35.67 314.95,41.49 L314.95,74.04 L297.66,74.04 L297.66,74.05 Z" id="Path" fill="#3E3E3E"></path>
            <path d="M353.61,36.96 L342.97,36.96 L342.97,74.05 L325.7,74.05 L325.7,36.96 L319.08,36.96 L319.08,28.48 L326.06,24.24 L326.06,23.4 C326.06,16.81 327.41,12.07 330.1,9.18 C332.8,6.3 337.12,4.85 343.07,4.85 C345.36,4.85 347.53,5.02 349.58,5.38 C351.62,5.73 354.01,6.35 356.71,7.23 L353,18.4 C350.88,17.81 348.81,17.52 346.77,17.52 C345.45,17.52 344.48,17.92 343.88,18.73 C343.27,19.54 342.97,20.86 342.97,22.68 L342.97,24 L353.61,24 L353.61,36.96 Z M360.05,11.57 C360.05,8.98 360.77,7.05 362.21,5.78 C363.65,4.52 365.98,3.88 369.19,3.88 C372.4,3.88 374.74,4.53 376.21,5.82 C377.68,7.11 378.42,9.03 378.42,11.56 C378.42,16.62 375.34,19.16 369.19,19.16 C363.1,19.16 360.05,16.63 360.05,11.57 M377.76,74.05 L360.5,74.05 L360.5,24.02 L377.76,24.02 L377.76,74.05 Z" id="Shape" fill="#3E3E3E"></path>
            <path d="M416.36,23.14 C417.86,23.14 419.29,23.26 420.64,23.49 L421.61,23.67 L420.07,39.96 C418.66,39.61 416.7,39.43 414.2,39.43 C410.43,39.43 407.69,40.29 405.99,42.01 C404.28,43.73 403.43,46.22 403.43,49.45 L403.43,74.04 L386.16,74.04 L386.16,24.02 L399,24.02 L401.7,32.01 L402.54,32.01 C403.98,29.36 405.99,27.22 408.57,25.58 C411.14,23.95 413.74,23.14 416.36,23.14" id="Path" fill="#3E3E3E"></path>
            <path d="M449.13,74.93 C440.8,74.93 434.33,72.72 429.72,68.28 C425.11,63.85 422.81,57.54 422.81,49.36 C422.81,40.91 424.95,34.43 429.21,29.91 C433.48,25.39 439.57,23.13 447.49,23.13 C455.03,23.13 460.85,25.1 464.96,29.02 C469.07,32.95 471.12,38.61 471.12,46 L471.12,53.68 L440.25,53.68 C440.37,56.48 441.39,58.67 443.32,60.26 C445.25,61.85 447.88,62.64 451.2,62.64 C454.23,62.64 457.02,62.35 459.57,61.78 C462.12,61.21 464.88,60.23 467.85,58.84 L467.85,71.25 C465.14,72.63 462.34,73.59 459.46,74.12 C456.57,74.67 453.13,74.93 449.13,74.93 M448.11,34.88 C446.08,34.88 444.38,35.52 443.01,36.8 C441.64,38.08 440.84,40.09 440.6,42.83 L455.43,42.83 C455.37,40.42 454.69,38.49 453.38,37.05 C452.08,35.6 450.32,34.88 448.11,34.88" id="Shape" fill="#3E3E3E"></path>
        </g>
    </g>
</svg>